<?xml version="1.0" encoding="UTF-8" standalone="no"?>
<svg
   xmlns:dc="http://purl.org/dc/elements/1.1/"
   xmlns:cc="http://creativecommons.org/ns#"
   xmlns:rdf="http://www.w3.org/1999/02/22-rdf-syntax-ns#"
   xmlns:svg="http://www.w3.org/2000/svg"
   xmlns="http://www.w3.org/2000/svg"
   xmlns:sodipodi="http://sodipodi.sourceforge.net/DTD/sodipodi-0.dtd"
   xmlns:inkscape="http://www.inkscape.org/namespaces/inkscape"
   width="1116.818"
   height="804.16638"
   viewBox="0 0 295.49142 212.76903"
   version="1.1"
   id="svg843"
   inkscape:version="1.0.2-2 (e86c870879, 2021-01-15)"
   sodipodi:docname="nubes.svg">
  <defs
     id="defs837" />
  <sodipodi:namedview
     id="base"
     pagecolor="#ffffff"
     bordercolor="#666666"
     borderopacity="1.0"
     inkscape:pageopacity="0.0"
     inkscape:pageshadow="2"
     inkscape:zoom="0.49497475"
     inkscape:cx="598.2506"
     inkscape:cy="335.3013"
     inkscape:document-units="mm"
     inkscape:current-layer="layer1"
     inkscape:document-rotation="0"
     showgrid="false"
     units="px"
     fit-margin-top="0"
     fit-margin-left="0"
     fit-margin-right="0"
     fit-margin-bottom="0"
     inkscape:window-width="1920"
     inkscape:window-height="1017"
     inkscape:window-x="-8"
     inkscape:window-y="-8"
     inkscape:window-maximized="1" />
  <metadata
     id="metadata840">
    <rdf:RDF>
      <cc:Work
         rdf:about="">
        <dc:format>image/svg+xml</dc:format>
        <dc:type
           rdf:resource="http://purl.org/dc/dcmitype/StillImage" />
        <dc:title></dc:title>
      </cc:Work>
    </rdf:RDF>
  </metadata>
  <g
     inkscape:label="Capa 1"
     inkscape:groupmode="layer"
     id="layer1"
     transform="translate(-8.787861,-13.831465)">
    <path
       id="path1409"
       style="fill:#f4e3d7;stroke:#deaa87;stroke-width:3.12123;stroke-linecap:round;stroke-linejoin:round;stroke-miterlimit:4;stroke-dasharray:none"
       d="M 175.82243,57.105092 A 24.306008,18.618095 1.0150386 0 0 153.30195,66.531835 16.119772,19.249172 89.928771 0 0 142.69,63.24739 a 16.119772,19.249172 89.928771 0 0 -20.29817,15.198075 16.119772,19.249172 89.928771 0 0 0.0104,1.95417 21.777299,17.401228 0.60999365 0 0 -14.54174,15.43477 21.777299,17.401228 0.60999365 0 0 20.58088,18.387145 21.777299,17.401228 0.60999365 0 0 6.07595,-0.40008 22.620697,18.041048 0.63139861 0 0 18.5928,9.36722 22.620697,18.041048 0.63139861 0 0 14.01977,-3.09135 28.442064,18.04507 1.8860166 0 0 23.63301,9.71733 28.442064,18.04507 1.8860166 0 0 29.61502,-16.68516 28.442064,18.04507 1.8860166 0 0 -1.65324,-6.90975 30.897196,21.691137 1.5381493 0 0 9.3838,-14.448815 30.897196,21.691137 1.5381493 0 0 -29.40524,-23.09128 30.897196,21.691137 1.5381493 0 0 -1.72539,-0.0465 24.306008,18.618095 1.0150386 0 0 -21.1555,-11.528066 z" />
    <path
       id="path1436"
       style="fill:#f4e3d7;stroke:#deaa87;stroke-width:3.401;stroke-linecap:round;stroke-linejoin:round;stroke-miterlimit:4;stroke-dasharray:none"
       d="m 212.80781,94.344819 a 20.045215,18.040693 12.61956 0 0 -23.06696,12.034611 18.174328,16.704346 12.61956 0 0 -4.11544,-1.41334 18.174328,16.704346 12.61956 0 0 -21.38506,12.33014 18.174328,16.704346 12.61956 0 0 14.08602,20.27159 18.174328,16.704346 12.61956 0 0 14.06726,-2.24038 22.851543,17.506155 12.61956 0 0 18.73831,17.80166 22.851543,17.506155 12.61956 0 0 12.66525,-0.0135 18.174328,16.036171 12.61956 0 0 14.40311,14.29026 18.174328,16.036171 12.61956 0 0 21.23857,-11.67822 18.174328,16.036171 12.61956 0 0 -0.53192,-8.10481 21.782465,13.49711 12.61956 0 0 2.52342,-4.45896 21.782465,13.49711 12.61956 0 0 -9.62142,-14.69612 17.105249,14.967093 12.61956 0 0 0.25335,-0.95897 17.105249,14.967093 12.61956 0 0 -13.42173,-18.34249 17.105249,14.967093 12.61956 0 0 -10.01383,0.44661 20.045215,18.040693 12.61956 0 0 -15.70546,-15.242728 20.045215,18.040693 12.61956 0 0 -0.11347,-0.0254 z" />
    <path
       id="path1449"
       style="fill:#f4e3d7;stroke:#deaa87;stroke-width:3.401;stroke-linecap:round;stroke-linejoin:round;stroke-miterlimit:4;stroke-dasharray:none"
       d="m 122.40222,80.399665 a 20.178848,18.441597 27.330756 0 0 26.3932,-7.1186 20.178848,18.441597 27.330756 0 0 0.27745,-0.56163 21.648832,18.976137 27.330756 0 0 26.01327,-7.81289 21.648832,18.976137 27.330756 0 0 -10.51974,-26.797355 21.648832,18.976137 27.330756 0 0 -7.12327,-2.386568 18.708866,14.566189 27.330756 0 0 -11.1382,-17.581207 18.708866,14.566189 27.330756 0 0 -20.30915,0.673641 13.229842,11.22532 27.330756 0 0 -15.12092,2.978647 15.501633,12.160764 27.330756 0 0 -0.12028,-0.06328 15.501633,12.160764 27.330756 0 0 -19.354855,3.686116 15.501633,12.160764 27.330756 0 0 -0.78214,7.195087 20.178848,14.967093 27.330756 0 0 -7.943591,6.19591 20.178848,14.967093 27.330756 0 0 11.054781,22.56105 20.178848,14.967093 27.330756 0 0 17.331465,2.015219 20.178848,18.441597 27.330756 0 0 11.34199,17.01583 z" />
    <path
       id="path1464"
       style="fill:#f4e3d7;stroke:#deaa87;stroke-width:3.401;stroke-linecap:round;stroke-linejoin:round;stroke-miterlimit:4;stroke-dasharray:none"
       d="m 108.28649,145.94138 a 16.630953,10.583333 45.537378 0 0 12.16009,6.44026 13.418155,10.961308 45.537378 0 0 0.39174,0.41344 13.418155,10.961308 45.537378 0 0 13.14605,4.2164 17.764881,16.063988 45.537378 0 0 2.42189,3.01299 17.764881,16.063988 45.537378 0 0 23.90835,1.42685 17.764881,16.063988 45.537378 0 0 0.52802,-22.20513 16.441963,17.008928 45.537378 0 0 2.77503,-2.22024 16.441963,17.008928 45.537378 0 0 0.62266,-23.64838 16.441963,17.008928 45.537378 0 0 -20.11056,-2.51126 16.441963,12.662203 45.537378 0 0 -1.49981,-1.70087 16.441963,12.662203 45.537378 0 0 -20.55379,-2.86549 16.441963,12.662203 45.537378 0 0 -2.05627,2.92386 13.040178,11.717261 45.537378 0 0 -15.21815,0.78945 13.040178,11.717261 45.537378 0 0 -0.33836,16.2439 16.630953,10.583333 45.537378 0 0 -0.35166,0.32119 16.630953,10.583333 45.537378 0 0 4.09569,19.28272 16.630953,10.583333 45.537378 0 0 0.0789,0.0804 z" />
    <path
       id="path1480"
       style="fill:#f4e3d7;stroke:#deaa87;stroke-width:3.401;stroke-linecap:round;stroke-linejoin:round;stroke-miterlimit:4;stroke-dasharray:none"
       d="m 127.07476,54.689245 a 19.087799,18.898809 0 0 0 -16.01452,8.69456 18.142856,17.953869 0 0 0 -12.471072,-4.914945 18.142856,17.953869 0 0 0 -15.511198,8.641327 15.119047,13.040178 0 0 0 -0.300241,-0.0858 17.197916,14.930057 0 0 0 -15.749942,-8.933303 17.197916,14.930057 0 0 0 -17.197917,14.929833 17.197916,14.930057 0 0 0 1.588017,6.26577 18.142856,14.552083 0 0 0 -11.037053,13.38884 18.142856,14.552083 0 0 0 18.142562,14.552093 18.142856,14.552083 0 0 0 9.489861,-2.14974 16.063987,15.308036 0 0 0 2.179193,1.14877 18.142856,15.497023 0 0 0 -2.219502,7.42693 18.142856,15.497023 0 0 0 18.142561,15.49673 18.142856,15.497023 0 0 0 17.876941,-12.85296 19.654762,17.575893 0 0 0 0.26614,0.002 19.654762,17.575893 0 0 0 15.7613,-7.07554 19.276785,17.008928 0 0 0 7.67344,1.4056 19.276785,17.008928 0 0 0 19.27634,-17.008693 19.276785,17.008928 0 0 0 -3.67471,-9.98906 19.087799,18.898809 0 0 0 2.9192,-10.04383 19.087799,18.898809 0 0 0 -19.08824,-18.898582 19.087799,18.898809 0 0 0 -0.0512,0 z" />
    <path
       id="path1529"
       style="fill:#f4e3d7;stroke:#deaa87;stroke-width:3.27211;stroke-linecap:round;stroke-linejoin:round;stroke-miterlimit:4;stroke-dasharray:none"
       d="m 134.77546,135.20159 a 15.645325,19.673194 87.988457 0 0 -14.32888,17.18005 16.520053,22.21372 84.773924 0 0 -3.56188,0.59236 16.520053,22.21372 84.773924 0 0 -16.0454,20.76243 16.520053,22.21372 84.773924 0 0 26.35738,11.00875 13.550947,18.405253 84.425806 0 0 0.002,0.006 13.550947,18.405253 84.425806 0 0 22.28105,8.87895 13.550947,18.405253 84.425806 0 0 10.40459,-5.66691 12.192555,15.450321 87.512795 0 0 12.57659,1.40828 12.192555,15.450321 87.512795 0 0 6.484,-2.94673 13.042106,17.222155 85.472576 0 0 16.75248,3.06887 13.042106,17.222155 85.472576 0 0 12.34855,-16.32703 13.042106,17.222155 85.472576 0 0 -9.48026,-8.28321 17.532362,14.600864 1.8465941 0 0 2.39858,-12.28523 17.532362,14.600864 1.8465941 0 0 -21.12358,-10.33135 15.503884,12.807212 1.0027871 0 0 -17.78,-6.1661 15.503884,12.807212 1.0027871 0 0 -7.23924,3.67731 15.645325,19.673194 87.988457 0 0 -20.02741,-4.58033 15.645325,19.673194 87.988457 0 0 -0.0184,0.004 z" />
    <path
       id="path1586"
       style="fill:#f4e3d7;stroke:#deaa87;stroke-width:3.40101;stroke-linecap:round;stroke-linejoin:round;stroke-miterlimit:4;stroke-dasharray:none"
       d="m 118.09928,61.083426 c -3.62047,6.797368 -1.13788,15.202462 5.55316,18.801021 3.7636,2.023985 8.26553,2.165765 12.19003,0.383912 1.13244,2.658387 3.14782,4.860882 5.70776,6.237688 3.53826,1.902871 7.7561,2.038793 11.3663,0.366304 0.62143,0.445722 1.27172,0.851575 1.94617,1.214504 7.99735,4.301105 17.68667,1.826389 21.64178,-5.527461 1.20148,-2.233884 1.77245,-4.760595 1.66033,-7.347477 4.31962,-1.259237 8.07037,-4.361969 10.31247,-8.530751 4.35031,-8.089229 1.9156,-17.852827 -5.43811,-21.807874 -4.01791,-2.1608 -8.89424,-2.210398 -13.26979,-0.13497 0.007,-3.823749 -1.77708,-7.099499 -4.73115,-8.688507 -2.25069,-1.210248 -4.97498,-1.3276 -7.5951,-0.327193 -0.72252,-0.604085 -1.50072,-1.130984 -2.32571,-1.574702 -7.81358,-4.202433 -18.11559,-0.231611 -23.01002,8.869011 -1.78603,3.321133 -2.66873,7.028105 -2.53241,10.634934 -4.80835,0.300904 -9.14426,3.096445 -11.4488,7.381512 -0.009,0.01663 -0.0179,0.03335 -0.0269,0.05003 z"
       sodipodi:nodetypes="scccccsccccccsccsss" />
    <path
       id="path1409-4"
       style="fill:#f4e3d7;stroke:#deaa87;stroke-width:3.12123;stroke-linecap:round;stroke-linejoin:round;stroke-miterlimit:4;stroke-dasharray:none"
       d="m 250.39805,45.338622 a 24.306008,18.618095 1.0150386 0 0 -22.52048,9.426743 16.119772,19.249172 89.928771 0 0 -10.61195,-3.284445 16.119772,19.249172 89.928771 0 0 -20.29817,15.198075 16.119772,19.249172 89.928771 0 0 0.0104,1.95417 21.777299,17.401228 0.60999365 0 0 -14.54174,15.43477 21.777299,17.401228 0.60999365 0 0 20.58088,18.387145 21.777299,17.401228 0.60999365 0 0 6.07595,-0.40008 22.620697,18.041048 0.63139861 0 0 18.59281,9.36722 22.620697,18.041048 0.63139861 0 0 14.01976,-3.09135 28.442064,18.04507 1.8860166 0 0 23.63301,9.71733 28.442064,18.04507 1.8860166 0 0 29.61502,-16.68516 28.442064,18.04507 1.8860166 0 0 -1.65323,-6.909751 30.897196,21.691137 1.5381493 0 0 9.3838,-14.448814 30.897196,21.691137 1.5381493 0 0 -29.40524,-23.09128 30.897196,21.691137 1.5381493 0 0 -1.7254,-0.0465 24.306008,18.618095 1.0150386 0 0 -21.15549,-11.528066 z" />
    <path
       id="path1409-4-4"
       style="fill:#f4e3d7;stroke:#deaa87;stroke-width:3.12123;stroke-linecap:round;stroke-linejoin:round;stroke-miterlimit:4;stroke-dasharray:none"
       d="m 80.953546,76.786723 a 24.306008,18.618095 1.0150386 0 0 -22.52047,9.426743 16.119772,19.249172 89.928771 0 0 -10.61195,-3.284445 16.119772,19.249172 89.928771 0 0 -20.29817,15.198079 16.119772,19.249172 89.928771 0 0 0.0104,1.95417 21.777299,17.401228 0.60999365 0 0 -14.54174,15.43477 21.777299,17.401228 0.60999365 0 0 20.58088,18.38714 21.777299,17.401228 0.60999365 0 0 6.07595,-0.40008 22.620697,18.041048 0.63139861 0 0 18.59281,9.36722 22.620697,18.041048 0.63139861 0 0 14.01976,-3.09135 28.442064,18.04507 1.8860166 0 0 23.633,9.71733 28.442064,18.04507 1.8860166 0 0 29.615014,-16.68516 28.442064,18.04507 1.8860166 0 0 -1.65322,-6.90975 30.897196,21.691137 1.5381493 0 0 9.38379,-14.44881 30.897196,21.691137 1.5381493 0 0 -29.40523,-23.091284 30.897196,21.691137 1.5381493 0 0 -1.72539,-0.0465 A 24.306008,18.618095 1.0150386 0 0 80.953486,76.78673 Z" />
    <path
       id="path1529-6"
       style="fill:#f4e3d7;stroke:#deaa87;stroke-width:3.27211;stroke-linecap:round;stroke-linejoin:round;stroke-miterlimit:4;stroke-dasharray:none"
       d="m 175.17151,122.06614 a 15.645325,19.673194 87.988457 0 0 -14.32888,17.18005 16.520053,22.21372 84.773924 0 0 -3.56188,0.59236 16.520053,22.21372 84.773924 0 0 -16.0454,20.76243 16.520053,22.21372 84.773924 0 0 26.35738,11.00875 13.550947,18.405253 84.425806 0 0 0.002,0.006 13.550947,18.405253 84.425806 0 0 22.28105,8.87895 13.550947,18.405253 84.425806 0 0 10.40459,-5.66691 12.192555,15.450321 87.512795 0 0 12.57659,1.40828 12.192555,15.450321 87.512795 0 0 6.48401,-2.94673 13.042106,17.222155 85.472576 0 0 16.75247,3.06887 13.042106,17.222155 85.472576 0 0 12.34855,-16.32703 13.042106,17.222155 85.472576 0 0 -9.48025,-8.28321 17.532362,14.600864 1.8465941 0 0 2.39858,-12.28523 17.532362,14.600864 1.8465941 0 0 -21.12358,-10.33135 15.503884,12.807212 1.0027871 0 0 -17.78,-6.1661 15.503884,12.807212 1.0027871 0 0 -7.23924,3.67731 15.645325,19.673194 87.988457 0 0 -20.02741,-4.58033 15.645325,19.673194 87.988457 0 0 -0.0184,0.004 z" />
    <path
       id="path1529-6-0"
       style="fill:#f4e3d7;stroke:#deaa87;stroke-width:3.27211;stroke-linecap:round;stroke-linejoin:round;stroke-miterlimit:4;stroke-dasharray:none"
       d="m 52.215026,135.20253 a 15.645325,19.673194 87.988457 0 0 -14.32888,17.18005 16.520053,22.21372 84.773924 0 0 -3.56188,0.59236 16.520053,22.21372 84.773924 0 0 -16.0454,20.76243 16.520053,22.21372 84.773924 0 0 26.35738,11.00875 13.550947,18.405253 84.425806 0 0 0.002,0.006 13.550947,18.405253 84.425806 0 0 22.28105,8.87895 13.550947,18.405253 84.425806 0 0 10.40459,-5.66691 12.192555,15.450321 87.512795 0 0 12.57659,1.40828 12.192555,15.450321 87.512795 0 0 6.48401,-2.94673 13.042106,17.222155 85.472576 0 0 16.752474,3.06887 13.042106,17.222155 85.472576 0 0 12.34855,-16.32703 13.042106,17.222155 85.472576 0 0 -9.48025,-8.28321 17.532362,14.600864 1.8465941 0 0 2.39858,-12.28523 17.532362,14.600864 1.8465941 0 0 -21.123584,-10.33135 15.503884,12.807212 1.0027871 0 0 -17.78,-6.1661 15.503884,12.807212 1.0027871 0 0 -7.23924,3.67731 15.645325,19.673194 87.988457 0 0 -20.02741,-4.58033 15.645325,19.673194 87.988457 0 0 -0.0184,0.004 z" />
    <path
       id="path1586-5"
       style="fill:#f4e3d7;stroke:#deaa87;stroke-width:3.40101;stroke-linecap:round;stroke-linejoin:round;stroke-miterlimit:4;stroke-dasharray:none"
       d="m 12.099243,126.06606 c -3.573382,6.82224 -1.032754,15.20997 5.68301,18.76218 3.777499,1.99792 8.280297,2.10858 12.192384,0.29963 1.150795,2.6505 3.181354,4.83901 5.750755,6.19809 3.551322,1.87836 7.770004,1.98512 11.368556,0.28771 0.624497,0.44142 1.277575,0.84276 1.954517,1.20102 8.026895,4.24572 17.698872,1.70408 21.603047,-5.67694 1.186008,-2.24213 1.739502,-4.77273 1.609504,-7.35878 4.310812,-1.28906 8.040024,-4.41766 10.253247,-8.60184 4.29428,-8.1191 1.792133,-17.86564 -5.588747,-21.76975 -4.032741,-2.13298 -8.9093,-2.14886 -13.270399,-0.0432 -0.01976,-3.82371 -1.826109,-7.08705 -4.791102,-8.6556 -2.259009,-1.194654 -4.98404,-1.293171 -7.597182,-0.27467 -0.726679,-0.599079 -1.508503,-1.120588 -2.336534,-1.55859 -7.842451,-4.148317 -18.116764,-0.10637 -22.948157,9.02787 -1.763029,3.3334 -2.62009,7.04639 -2.458827,10.65219 -4.806159,0.33413 -9.122642,3.15958 -11.3975,7.46048 -0.0089,0.0167 -0.01776,0.0335 -0.02655,0.0502 z"
       sodipodi:nodetypes="scccccsccccccsccsss" />
    <path
       id="path1719"
       style="fill:#f4e3d7;stroke:#deaa87;stroke-width:3.40101;stroke-linecap:round;stroke-linejoin:round;stroke-miterlimit:4;stroke-dasharray:none"
       d="m 222.36606,139.5327 a 16.83798,14.699824 0 0 0 -15.0213,8.05791 15.234362,14.699824 0 0 0 -14.11129,14.66009 15.234362,14.699824 0 0 0 0.006,0.3886 23.519718,17.907059 0 0 0 -2.79207,3.24942 24.588796,20.579754 0 0 0 -3.09335,-0.1633 24.588796,20.579754 0 0 0 -24.58869,20.57962 24.588796,20.579754 0 0 0 24.58869,20.57962 24.588796,20.579754 0 0 0 1.98075,-0.0672 18.174328,15.501633 0 0 0 17.79735,12.36151 18.174328,15.501633 0 0 0 15.74427,-7.75869 25.390606,19.243404 0 0 0 15.52618,4.01732 25.390606,19.243404 0 0 0 25.39071,-19.24379 25.390606,19.243404 0 0 0 -0.73073,-4.58318 17.105249,12.294398 0 0 0 10.88668,-11.45304 17.105249,12.294398 0 0 0 -17.10542,-12.29435 17.105249,12.294398 0 0 0 -7.6817,1.31 14.699824,13.630746 0 0 0 0.73279,-4.24987 14.699824,13.630746 0 0 0 -10.93319,-13.17542 16.83798,14.699824 0 0 0 -16.59538,-12.21528 z" />
  </g>
</svg>
